<?xml version="1.0" standalone="no"?>
<!DOCTYPE svg PUBLIC "-//W3C//DTD SVG 20010904//EN"
 "http://www.w3.org/TR/2001/REC-SVG-20010904/DTD/svg10.dtd">
<svg version="1.0" xmlns="http://www.w3.org/2000/svg"
 width="2480.000000pt" height="3508.000000pt" viewBox="0 0 2480.000000 3508.000000"
 preserveAspectRatio="xMidYMid meet">

<g transform="translate(0.000000,3508.000000) scale(0.100000,-0.100000)"
fill="#000000" stroke="none">
<path d="M0 17540 l0 -17540 12400 0 12400 0 0 17540 0 17540 -12400 0 -12400
0 0 -17540z m7824 16695 c132 -18 481 -41 846 -57 251 -10 522 -2 574 18 14 5
16 -3 16 -57 l0 -64 -44 -28 c-56 -35 -181 -162 -238 -242 -205 -284 -383
-738 -448 -1140 -34 -218 -42 -337 -37 -597 10 -507 82 -849 253 -1204 39 -81
125 -221 164 -268 53 -63 194 -200 243 -236 335 -241 822 -276 1192 -83 219
113 356 239 442 404 92 175 138 359 174 694 35 328 39 442 45 1145 7 792 -4
1208 -35 1334 -11 42 -24 83 -31 91 -26 32 -139 46 -397 48 -187 2 -256 6
-265 15 -8 8 -13 40 -13 82 0 59 3 72 25 95 l25 28 225 -7 c124 -3 281 -11
350 -17 69 -6 305 -12 525 -12 322 -2 445 2 629 18 l228 19 19 -23 c28 -34 26
-121 -2 -147 -19 -17 -39 -19 -188 -20 -239 -1 -247 -5 -277 -164 -8 -41 -19
-97 -24 -125 -6 -27 -17 -126 -25 -220 -9 -93 -18 -178 -20 -190 -4 -18 -22
-341 -45 -825 -12 -247 -12 -1737 0 -1920 31 -475 73 -622 194 -679 125 -58
140 -62 254 -68 106 -6 113 -7 118 -29 9 -33 -16 -77 -56 -97 -30 -16 -53 -18
-160 -14 -110 4 -135 8 -206 36 -87 34 -178 89 -234 141 l-35 32 -130 -12
c-71 -7 -166 -16 -210 -21 -44 -4 -125 -8 -181 -8 -93 -1 -102 1 -123 23 -33
35 -50 122 -57 303 l-7 162 -76 -62 c-470 -386 -1067 -540 -1676 -433 -119 21
-312 75 -380 106 -11 5 -52 23 -92 40 -344 146 -630 416 -801 755 -93 185
-140 330 -183 570 -17 94 -27 398 -18 528 9 128 14 167 43 304 57 270 259 755
449 1075 12 20 38 63 57 95 40 67 174 266 204 304 12 14 30 38 41 53 24 33 73
91 134 158 l44 49 -79 -5 c-43 -3 -151 -8 -238 -11 -238 -9 -470 -52 -587
-111 -44 -22 -109 -84 -109 -104 0 -14 -37 -31 -54 -24 -13 5 -16 24 -16 108
1 214 55 450 113 491 27 19 34 19 171 0z m7493 -6 c36 -13 43 -25 43 -75 0
-91 -94 -123 -450 -154 -69 -6 -148 -18 -177 -26 l-52 -15 -11 -57 c-6 -31
-16 -75 -21 -97 -5 -22 -16 -131 -24 -242 -8 -111 -17 -208 -20 -215 -8 -26
-50 -1326 -42 -1334 19 -19 433 261 627 424 81 68 403 392 505 507 48 55 93
105 99 110 6 6 38 42 71 80 201 234 299 388 365 580 23 66 38 250 22 273 -12
18 -161 4 -356 -33 -154 -29 -192 -25 -217 21 -30 57 5 185 63 227 34 25 119
27 408 8 207 -13 907 -10 1125 5 76 5 81 4 104 -20 17 -18 22 -32 17 -50 -11
-44 -419 -441 -751 -731 -37 -33 -73 -65 -79 -71 -31 -29 -438 -383 -615 -534
-42 -35 -105 -89 -141 -120 -36 -31 -145 -122 -242 -203 -98 -81 -179 -151
-182 -155 -2 -4 87 -7 197 -7 214 0 302 -13 432 -66 339 -138 593 -398 723
-739 85 -225 115 -501 71 -654 l-21 -72 27 -59 c15 -33 42 -91 60 -130 18 -38
47 -104 65 -145 17 -41 49 -112 71 -158 21 -46 39 -85 39 -87 0 -6 151 -268
178 -310 98 -149 273 -339 367 -399 83 -54 98 -61 160 -84 146 -52 236 -48
397 18 54 22 103 40 108 40 5 0 21 -17 35 -37 36 -54 35 -117 -5 -171 -43 -60
-100 -97 -170 -112 -161 -34 -514 78 -790 252 -82 52 -247 172 -302 221 -133
117 -183 165 -259 251 -132 148 -206 266 -368 589 -125 248 -218 415 -360 645
-51 83 -202 283 -274 365 -231 259 -446 414 -660 477 -77 23 -79 23 -135 6
-118 -36 -219 -104 -351 -237 l-63 -64 5 -310 c13 -741 42 -1128 88 -1204 42
-66 179 -98 477 -109 170 -7 194 -10 218 -28 41 -30 51 -70 27 -103 -11 -14
-31 -32 -44 -38 -28 -15 -168 -16 -339 -3 -340 25 -610 32 -865 21 -378 -16
-678 -51 -985 -115 -145 -30 -174 -31 -215 -7 -28 17 -30 22 -29 74 2 70 20
116 48 121 20 4 165 18 326 32 157 13 375 66 440 106 27 17 47 92 59 223 6 61
16 146 21 190 13 96 37 508 51 875 6 154 8 691 6 1280 -3 984 -4 1018 -25
1123 -29 152 -37 167 -87 167 -22 0 -69 5 -105 10 -36 6 -99 15 -140 20 -91
13 -227 54 -257 78 -50 38 -46 111 7 140 31 17 293 10 477 -12 173 -21 674
-30 948 -17 193 9 525 42 560 56 20 7 64 5 92 -6z m-8432 -7461 c33 -15 65
-75 65 -121 0 -25 -9 -43 -33 -68 -246 -257 -410 -610 -492 -1059 -19 -109
-53 -431 -63 -603 l-7 -132 -45 -23 c-31 -16 -59 -22 -90 -20 l-45 3 -6 135
c-7 150 -22 208 -85 337 -149 302 -444 577 -755 704 -282 115 -643 97 -940
-47 -166 -81 -355 -233 -462 -374 -23 -30 -44 -57 -47 -60 -20 -19 -170 -272
-170 -285 0 -3 -11 -28 -24 -57 -13 -29 -27 -64 -31 -78 -4 -14 -11 -29 -15
-35 -7 -9 -39 -113 -74 -235 -63 -223 -92 -545 -75 -855 5 -99 14 -207 19
-240 30 -190 92 -437 130 -520 5 -11 21 -51 36 -90 154 -403 454 -749 799
-924 161 -82 240 -106 444 -132 l164 -21 146 21 c291 42 481 145 644 348 95
118 150 235 194 413 22 92 25 126 25 270 0 175 -12 251 -67 418 -87 261 -271
491 -458 570 -55 23 -75 26 -177 26 -175 0 -297 -43 -391 -137 -59 -60 -82
-116 -83 -207 -1 -56 5 -90 22 -135 40 -103 126 -195 183 -195 31 0 59 -31 59
-66 0 -18 -13 -29 -57 -49 -91 -42 -92 -43 -203 -72 -98 -26 -119 -28 -310
-28 -201 0 -206 0 -261 27 -30 14 -81 49 -112 78 -97 88 -148 202 -149 330 0
88 17 133 85 215 44 53 57 65 146 133 53 40 248 142 301 157 14 4 39 13 55 20
111 49 374 109 605 137 104 12 536 5 605 -10 28 -7 82 -18 120 -26 92 -18 182
-44 222 -62 17 -7 34 -14 38 -14 8 0 87 -35 150 -67 116 -59 254 -174 331
-276 250 -333 193 -795 -152 -1232 -338 -429 -885 -734 -1444 -806 -85 -11
-461 -10 -570 1 -285 29 -461 67 -700 152 -617 219 -1027 646 -1218 1268 -62
203 -87 394 -87 675 0 203 19 407 45 490 6 17 16 55 24 85 28 110 46 168 61
196 8 16 15 36 15 44 0 28 165 344 229 440 166 249 398 491 628 655 121 87
353 217 493 279 268 116 520 180 860 217 127 14 621 7 695 -10 28 -6 86 -17
130 -25 91 -16 191 -40 250 -61 22 -7 74 -23 115 -36 41 -12 100 -30 130 -39
119 -38 116 -39 145 24 14 30 25 58 25 61 0 7 7 24 55 130 140 309 268 485
352 485 18 0 44 -5 58 -12z m2283 -381 c2 -37 -2 -64 -10 -74 -14 -17 -102
-58 -146 -68 -36 -7 -45 -17 -61 -65 -15 -44 -48 -296 -61 -460 -5 -69 -17
-215 -25 -325 -14 -179 -45 -957 -45 -1122 l0 -65 58 49 c31 26 59 50 62 53
38 41 314 245 390 288 25 14 52 31 60 38 35 29 262 135 362 168 151 50 224 59
418 53 170 -6 247 -21 386 -76 195 -76 386 -246 489 -433 88 -161 118 -293
118 -513 0 -367 -80 -685 -267 -1061 -206 -415 -510 -792 -870 -1078 -50 -40
-106 -81 -124 -90 -31 -16 -36 -16 -58 -1 -39 25 -31 57 37 138 60 71 183 249
196 284 4 10 19 39 34 65 16 26 51 100 79 165 29 65 56 127 61 138 41 89 124
377 144 500 32 191 35 225 35 400 0 268 -39 463 -131 649 -139 280 -377 442
-649 440 -92 0 -210 -24 -305 -60 -213 -81 -413 -256 -499 -437 -31 -67 -37
-91 -55 -253 -41 -357 -54 -863 -30 -1127 14 -148 36 -213 89 -261 50 -45 106
-60 190 -51 118 13 123 13 134 -17 7 -20 6 -31 -5 -44 -18 -22 -191 -104 -292
-138 -43 -15 -88 -31 -100 -36 -33 -12 -301 -96 -387 -120 -41 -11 -98 -27
-126 -35 -70 -20 -134 -19 -189 5 -38 16 -50 28 -66 66 l-21 46 31 108 c17 60
36 144 41 187 19 158 40 373 51 538 6 94 13 173 15 176 2 3 10 140 19 305 9
164 20 369 25 454 17 260 24 1208 11 1515 -24 616 -56 804 -151 890 -22 20
-139 55 -184 55 -28 0 -28 1 -22 42 9 52 35 96 77 127 39 29 91 34 544 51 165
6 327 15 360 20 110 15 250 42 265 51 8 5 33 8 55 6 l40 -2 3 -58z m11510
-1313 c31 -21 28 -32 -20 -82 l-43 -43 30 -22 c102 -76 451 -148 905 -187 200
-17 600 -23 792 -11 183 11 391 44 452 72 26 12 30 11 52 -14 13 -16 24 -32
24 -38 0 -13 -47 -44 -240 -159 -330 -197 -438 -252 -571 -288 -116 -32 -556
-62 -904 -62 -218 0 -189 14 -255 -120 -58 -118 -104 -260 -137 -425 -25 -127
-25 -395 1 -520 68 -329 230 -570 487 -723 76 -44 145 -73 254 -103 117 -32
334 -32 460 0 214 54 465 185 620 325 54 48 69 48 80 -4 13 -57 -11 -105 -83
-167 -36 -32 -71 -61 -77 -66 -5 -4 -39 -30 -75 -58 -59 -47 -199 -141 -340
-231 -196 -124 -408 -223 -625 -291 -229 -73 -356 -84 -535 -47 -220 45 -387
135 -546 295 -66 65 -160 197 -193 270 -38 85 -64 160 -88 255 -24 94 -26 123
-26 285 1 154 4 198 26 300 28 130 55 220 110 360 36 92 137 298 182 370 13
22 32 54 41 70 15 27 74 117 141 215 l23 35 -127 6 c-193 10 -513 9 -648 -1
-139 -10 -189 -25 -261 -80 -29 -22 -59 -38 -66 -35 -22 9 -59 71 -52 88 8 22
195 170 472 374 31 24 62 46 67 51 76 59 302 218 436 308 180 120 210 131 257
98z m-6253 -248 c322 -71 547 -199 716 -406 149 -182 223 -388 244 -675 8
-120 -18 -316 -59 -440 -101 -301 -279 -569 -576 -865 -338 -336 -713 -562
-1046 -630 -185 -37 -446 -20 -634 41 -229 75 -435 222 -579 414 -92 122 -183
330 -216 495 -32 159 -37 217 -32 410 4 161 9 214 30 305 102 439 365 807 757
1056 30 20 73 47 95 61 148 93 386 187 600 236 129 30 129 30 365 27 190 -2
229 -6 335 -29z m3730 19 c170 -28 364 -70 435 -94 14 -5 58 -19 98 -31 46
-15 72 -28 72 -37 0 -23 -65 -149 -117 -227 -101 -151 -342 -439 -390 -465
-24 -12 -83 -15 -98 -3 -5 4 -11 46 -11 93 -1 74 -6 95 -33 151 -60 127 -178
206 -379 255 -91 22 -131 26 -267 26 -159 1 -160 1 -227 -30 -162 -76 -229
-216 -199 -412 22 -141 97 -239 244 -320 147 -81 314 -126 657 -176 346 -50
587 -143 722 -277 67 -67 90 -108 118 -212 69 -259 -36 -524 -301 -755 -105
-91 -103 -89 -215 -163 -248 -162 -469 -265 -709 -329 -154 -40 -393 -38 -590
7 -320 73 -349 81 -495 126 l-95 29 -41 -45 c-22 -24 -54 -70 -69 -101 -33
-65 -51 -77 -103 -73 -27 2 -40 10 -51 29 -13 24 -11 30 41 120 31 51 80 135
111 184 31 50 81 133 112 185 111 188 250 414 269 438 54 69 78 76 123 38 28
-24 28 -25 11 -54 -51 -87 -2 -166 177 -287 66 -44 281 -155 300 -155 6 0 32
-9 60 -20 94 -36 190 -59 315 -75 121 -16 128 -16 217 4 137 30 218 90 278
207 29 57 30 64 30 189 0 120 -2 134 -27 185 -15 30 -46 74 -70 96 -39 38
-175 124 -195 124 -4 0 -21 7 -37 15 -72 38 -292 87 -626 140 -52 8 -106 19
-120 24 -14 6 -41 13 -60 16 -58 11 -241 75 -295 104 -234 125 -325 267 -325
506 1 262 194 543 522 761 209 138 536 263 770 293 108 14 366 12 463 -4z
m-13704 -6488 c39 -26 59 -69 43 -95 -6 -9 -40 -33 -75 -53 -173 -97 -269
-241 -361 -539 -57 -185 -113 -551 -118 -772 0 -35 -140 -50 -161 -17 -3 6
-10 37 -13 68 -13 113 -88 295 -176 427 -55 81 -214 245 -291 300 -59 41 -191
114 -258 141 -315 129 -717 129 -955 0 -154 -84 -279 -233 -312 -376 -26 -107
-14 -248 27 -338 10 -24 19 -45 19 -48 0 -17 92 -138 144 -191 89 -88 198
-156 371 -229 49 -20 188 -61 395 -115 47 -12 114 -30 150 -41 36 -10 108 -30
160 -45 368 -101 639 -247 834 -447 175 -180 246 -335 266 -575 20 -235 -26
-469 -135 -697 -55 -113 -169 -292 -227 -356 -192 -212 -314 -314 -511 -428
-144 -83 -343 -166 -458 -190 -24 -5 -64 -16 -89 -23 -75 -21 -606 -17 -745 5
-270 45 -435 75 -465 87 -14 5 -41 12 -60 15 -78 14 -385 112 -445 142 -56 29
-57 31 -24 86 31 53 161 314 191 383 17 41 46 124 72 210 29 94 38 196 34 354
-4 134 -8 162 -28 210 -50 118 -104 164 -185 157 -43 -4 -54 -10 -86 -46 l-36
-41 -34 17 c-19 9 -37 21 -40 26 -16 24 46 129 105 180 85 73 210 89 301 39
110 -60 169 -193 185 -417 18 -246 27 -293 65 -372 59 -119 156 -231 300 -347
79 -63 110 -85 186 -131 92 -55 268 -132 374 -163 243 -71 594 -50 791 47 50
25 129 84 160 120 12 14 33 39 46 54 38 44 88 145 115 232 21 69 24 100 24
230 1 161 -18 264 -65 364 -109 231 -327 386 -701 495 -49 15 -112 33 -140 41
-27 9 -68 19 -90 24 -22 5 -121 30 -220 56 -99 25 -205 53 -236 60 -31 8 -67
18 -80 24 -13 5 -64 21 -114 36 -133 40 -335 143 -432 220 -119 95 -205 215
-267 370 -21 52 -56 273 -56 350 0 130 49 360 101 472 10 24 19 45 19 47 0 11
88 157 123 206 23 30 91 105 151 165 142 141 285 237 471 316 39 17 79 34 90
40 81 37 290 91 450 116 151 23 608 26 750 5 156 -24 312 -56 385 -80 19 -7
87 -26 150 -43 63 -16 125 -34 138 -40 41 -16 57 -10 82 31 105 172 177 254
252 289 59 28 126 27 169 -2z m12348 -404 c112 -83 353 -352 367 -408 7 -27
-9 -58 -48 -96 -44 -42 -204 -156 -296 -212 -112 -67 -172 -92 -206 -83 -52
13 -312 258 -376 355 -41 60 -39 84 11 132 110 106 450 337 498 338 8 1 30
-11 50 -26z m-10754 -919 c14 -9 25 -21 25 -27 0 -6 -19 -30 -42 -54 -49 -50
-45 -61 40 -99 133 -59 360 -104 725 -144 181 -20 533 -32 757 -27 305 8 442
24 598 72 42 12 43 12 68 -18 24 -29 25 -31 7 -48 -10 -10 -61 -42 -113 -72
-52 -31 -135 -80 -185 -111 -295 -182 -468 -257 -630 -270 -44 -4 -120 -11
-170 -17 -49 -6 -249 -13 -444 -17 l-353 -7 -42 -80 c-126 -243 -183 -504
-173 -785 16 -436 219 -777 564 -949 71 -36 104 -48 238 -83 22 -6 108 -11
190 -11 133 -1 162 3 255 27 58 15 109 31 115 35 5 5 27 14 48 21 96 31 312
161 411 247 34 29 67 52 75 51 20 -4 32 -55 24 -98 -13 -75 -245 -259 -614
-487 -171 -106 -425 -221 -614 -277 -49 -15 -108 -33 -130 -39 -23 -7 -103
-12 -190 -12 -191 0 -289 23 -451 105 -343 174 -551 486 -586 883 -27 306 48
643 220 982 80 160 72 145 168 295 34 52 77 120 97 151 l35 57 -246 7 c-292 9
-549 0 -650 -21 -57 -13 -86 -26 -131 -60 -32 -24 -63 -44 -68 -44 -13 0 -63
60 -63 76 0 6 8 21 18 32 34 41 271 222 632 484 96 70 180 131 185 136 6 5 79
54 164 110 161 107 189 117 236 86z m4745 -247 c297 -64 506 -171 667 -342 97
-103 131 -149 182 -250 133 -259 160 -634 67 -925 -69 -218 -238 -506 -409
-697 -103 -115 -289 -296 -372 -361 -49 -39 -96 -77 -104 -84 -8 -6 -69 -49
-136 -94 -189 -126 -372 -209 -570 -261 -101 -26 -416 -26 -530 0 -85 20 -211
59 -241 75 -11 6 -44 22 -74 37 -99 49 -194 118 -286 210 -169 166 -269 358
-335 640 -22 91 -24 123 -24 345 0 221 2 255 23 345 35 150 71 249 144 392
116 229 277 423 478 574 302 228 565 344 945 420 22 4 135 6 250 4 177 -3 228
-7 325 -28z m2821 10 c77 -47 117 -118 149 -267 20 -92 23 -132 22 -323 -1
-120 3 -215 8 -212 4 3 21 24 37 48 163 242 400 515 537 619 108 81 173 109
267 115 99 7 123 -5 256 -126 241 -219 286 -246 413 -246 68 0 93 5 126 22 36
19 43 20 61 8 11 -8 23 -26 25 -40 6 -26 -20 -52 -213 -216 -230 -194 -407
-289 -537 -289 -81 0 -156 37 -307 149 -103 77 -125 86 -206 85 -91 -1 -149
-26 -219 -94 -109 -106 -176 -246 -261 -550 -57 -203 -91 -641 -71 -918 16
-236 50 -330 134 -373 42 -22 171 -26 247 -8 57 13 73 0 69 -55 -3 -46 -13
-53 -158 -113 -41 -17 -111 -48 -155 -68 -44 -21 -116 -54 -160 -75 -44 -20
-91 -41 -105 -45 -14 -4 -29 -11 -35 -15 -16 -11 -155 -58 -223 -74 -85 -21
-141 -20 -222 4 -76 23 -116 57 -107 92 4 13 15 56 26 96 11 40 27 142 36 225
9 84 20 177 25 207 34 209 47 926 22 1221 -25 290 -85 482 -179 570 -79 75
-156 99 -308 99 -69 0 -85 3 -100 20 -16 18 -17 23 -4 46 7 15 48 47 89 71 41
25 97 58 124 74 176 107 558 295 696 343 69 23 157 21 201 -7z m6674 -6 c181
-50 301 -133 350 -242 25 -56 27 -69 23 -158 -3 -74 -9 -106 -26 -138 -13 -26
-18 -43 -11 -43 14 0 189 76 348 151 67 33 125 59 128 59 2 0 32 16 65 36 56
32 63 34 77 19 14 -14 14 -21 -1 -80 -22 -83 -48 -118 -123 -167 -52 -34 -451
-236 -587 -297 -61 -27 -125 -55 -185 -82 -27 -11 -61 -27 -78 -35 -16 -7 -79
-34 -140 -59 -60 -26 -123 -53 -140 -60 -16 -8 -73 -32 -125 -54 -52 -22 -165
-70 -250 -106 -248 -107 -268 -116 -390 -173 -47 -21 -114 -52 -148 -68 l-64
-29 7 -75 c12 -133 58 -272 129 -394 53 -90 186 -230 276 -290 64 -44 247
-136 269 -136 4 0 35 -8 67 -19 70 -22 231 -41 348 -41 302 0 569 75 841 234
51 31 100 56 107 56 19 -1 54 -32 62 -55 14 -40 -317 -335 -529 -471 -117 -75
-337 -186 -440 -222 -249 -86 -479 -111 -720 -76 -115 16 -293 60 -310 75 -5
5 -16 9 -24 9 -8 0 -39 12 -70 26 -273 128 -466 314 -580 557 -88 188 -116
338 -116 617 0 272 29 481 96 684 22 67 22 69 72 176 80 170 241 368 409 503
53 42 222 157 232 157 2 0 32 16 66 35 35 20 95 49 134 66 39 17 80 34 91 39
56 24 238 72 355 94 14 2 115 3 225 2 170 -3 212 -6 280 -25z m3350 5 c207
-43 321 -71 460 -112 86 -26 89 -30 65 -92 -36 -93 -143 -251 -296 -437 -103
-125 -163 -189 -191 -204 -24 -12 -83 -15 -98 -3 -5 4 -10 41 -11 82 -1 136
-53 234 -168 313 -125 87 -290 129 -517 131 -93 1 -155 -3 -170 -11 -13 -6
-46 -21 -72 -33 -60 -28 -128 -96 -158 -156 -42 -88 -35 -266 15 -371 49 -100
182 -200 346 -258 111 -40 290 -79 510 -110 58 -8 137 -22 175 -31 110 -26
257 -65 274 -74 9 -5 47 -23 86 -40 113 -51 221 -142 271 -229 58 -102 79
-288 48 -413 -58 -227 -230 -430 -539 -633 -105 -70 -324 -188 -410 -222 -188
-73 -264 -95 -407 -118 -139 -22 -304 -11 -488 34 -25 6 -110 27 -190 47 -80
19 -172 41 -205 50 -33 8 -69 18 -80 23 -56 26 -87 31 -106 17 -23 -16 -66
-75 -98 -136 -31 -58 -46 -70 -92 -70 -37 0 -69 26 -69 55 0 5 52 96 114 200
63 105 140 233 171 285 31 52 75 125 98 162 23 37 69 111 101 163 65 106 108
155 135 155 10 0 30 -11 45 -25 26 -24 26 -26 11 -54 -33 -64 -12 -132 58
-196 208 -189 618 -349 897 -349 193 0 317 69 395 221 29 56 30 63 30 188 0
126 -1 132 -32 190 -85 163 -309 266 -723 335 -480 80 -657 138 -817 270 -120
99 -165 189 -188 375 -6 50 13 170 40 247 41 119 182 311 309 419 144 123 269
200 486 297 116 52 317 108 475 132 87 14 421 4 510 -14z m-6584 -3 c39 -23
64 -97 56 -167 -4 -28 -16 -127 -27 -221 -24 -191 -55 -507 -69 -695 -6 -69
-13 -291 -17 -495 -7 -441 4 -681 36 -764 36 -93 78 -141 160 -183 40 -21 58
-23 165 -22 154 2 329 45 467 115 56 28 72 20 64 -33 -13 -80 -24 -89 -250
-201 -216 -107 -233 -116 -346 -162 -36 -14 -79 -33 -97 -41 -17 -8 -34 -14
-38 -14 -3 0 -25 -9 -48 -19 -24 -11 -56 -23 -72 -27 -17 -4 -34 -10 -40 -14
-17 -13 -189 -60 -291 -79 -137 -25 -235 -5 -312 64 -31 28 -58 64 -72 97 -21
50 -22 62 -17 203 3 83 10 182 16 220 12 75 34 350 56 695 16 248 19 840 5
949 -30 226 -133 319 -309 275 l-65 -17 -23 27 c-53 62 -47 66 352 265 475
237 635 292 716 244z m6754 -3704 c52 -15 119 -82 134 -134 7 -27 11 -224 11
-613 0 -541 -1 -573 -17 -568 -10 3 -79 23 -153 45 -166 49 -355 93 -520 122
-159 27 -513 37 -687 19 -342 -34 -705 -124 -1259 -309 l-240 -81 -1709 0
-1708 0 -321 106 c-402 132 -485 156 -671 193 -258 52 -419 64 -755 58 -294
-5 -382 -13 -645 -58 -276 -46 -631 -137 -957 -244 l-166 -55 -1714 0 -1714 0
-134 45 c-409 138 -824 237 -1230 292 -194 26 -770 26 -945 0 -274 -41 -421
-79 -853 -222 l-349 -115 -1708 0 -1709 0 -222 74 c-501 169 -777 242 -1114
297 -180 30 -568 37 -740 15 -206 -27 -472 -87 -694 -155 -54 -17 -101 -31
-104 -31 -2 0 -3 264 0 588 6 642 4 628 66 685 16 16 47 35 68 42 33 12 1775
14 11379 15 8277 0 11351 -3 11380 -11z m-18894 -2609 c10 -6 19 -19 19 -28 0
-25 -37 -62 -61 -62 -33 0 -75 -27 -114 -72 -47 -55 -117 -201 -144 -298 -27
-100 -69 -351 -77 -464 -7 -97 -20 -126 -59 -126 -36 0 -54 22 -70 85 -43 164
-166 322 -310 397 -234 121 -556 126 -754 11 -224 -129 -372 -358 -445 -683
-68 -307 -58 -716 25 -1039 114 -443 347 -727 668 -813 107 -29 285 -28 396 1
237 63 474 242 586 442 44 81 74 111 102 107 19 -3 22 -8 19 -43 -6 -74 -121
-335 -220 -497 -75 -123 -115 -259 -132 -446 -4 -51 -14 -99 -20 -107 -17 -21
-96 -20 -104 1 -12 31 -5 101 24 247 16 81 26 155 23 163 -4 12 -17 13 -65 8
-33 -4 -207 -7 -387 -8 -301 -1 -335 1 -437 21 -590 120 -970 506 -1074 1091
-32 184 -30 470 6 647 69 338 291 662 588 857 185 122 413 214 631 254 198 37
649 20 919 -35 l85 -17 6 26 c4 14 29 71 56 127 94 192 231 300 320 253z
m9614 -181 c382 -47 620 -214 654 -460 10 -71 0 -196 -20 -258 -69 -212 -276
-428 -539 -560 l-75 -37 118 -17 c332 -49 577 -153 723 -310 105 -113 144
-214 144 -376 0 -217 -94 -415 -290 -611 -224 -222 -550 -393 -853 -446 -215
-38 -615 11 -939 116 l-88 28 -78 -38 c-190 -92 -293 -120 -447 -120 -109 0
-141 10 -164 51 -13 24 -13 31 3 73 20 51 33 56 76 24 24 -17 44 -21 117 -22
73 -1 96 3 135 22 55 27 113 88 138 146 59 133 90 578 90 1306 0 703 -33 1084
-98 1143 -38 35 -104 49 -245 55 -131 4 -139 6 -154 28 -9 15 -13 33 -8 53 12
55 15 56 253 40 119 -7 296 -13 392 -13 195 0 164 -7 450 99 85 32 193 66 240
76 100 21 326 25 465 8z m3035 -14 c186 -28 364 -95 481 -181 119 -87 220
-231 254 -364 22 -83 22 -252 0 -335 -39 -151 -152 -324 -305 -468 -111 -105
-204 -169 -361 -251 l-122 -64 79 -7 c271 -24 488 -110 630 -250 118 -116 161
-239 114 -323 l-23 -40 118 -204 c183 -315 298 -474 436 -602 177 -164 329
-221 525 -197 101 12 164 40 200 86 31 41 49 49 69 29 26 -27 18 -70 -22 -115
-77 -85 -178 -119 -356 -119 -261 0 -506 103 -777 326 -116 95 -331 322 -480
504 -343 420 -563 636 -733 720 -89 43 -187 60 -391 67 l-179 6 6 -409 c6
-386 12 -484 38 -596 10 -45 13 -48 66 -68 33 -12 102 -25 167 -31 246 -21
296 -35 296 -79 0 -9 -9 -25 -20 -35 -19 -17 -39 -17 -347 -9 -391 11 -811 8
-943 -6 -217 -24 -269 -24 -290 -5 -23 21 -26 58 -6 78 9 9 76 22 178 36 90
13 192 32 228 44 64 22 64 22 77 72 24 93 52 319 63 499 13 232 13 1297 -1
1519 -15 249 -34 389 -56 405 -32 23 -115 41 -269 56 -164 16 -201 27 -210 63
-16 63 22 77 180 63 216 -19 379 -29 483 -30 95 0 107 2 185 36 183 79 406
148 573 178 105 19 326 19 445 1z m3175 -40 c224 -50 561 -90 890 -105 319
-15 928 15 1125 55 57 11 67 11 83 -3 25 -22 21 -64 -8 -92 -38 -36 -113 -50
-330 -61 -162 -9 -202 -14 -213 -27 -14 -18 -11 -64 19 -301 78 -611 367
-2031 469 -2303 19 -52 25 -58 57 -64 19 -4 72 -4 117 0 91 7 99 4 110 -49 12
-57 16 -57 -295 -45 -209 8 -340 7 -498 -1 -204 -11 -215 -11 -228 6 -16 23
-17 46 0 68 8 12 33 19 82 24 39 3 75 10 81 15 8 5 10 25 7 51 -6 45 -138 795
-174 989 l-22 117 -76 8 c-42 4 -200 8 -351 8 -230 0 -288 -3 -352 -18 -42
-10 -81 -23 -86 -30 -11 -14 -104 -414 -128 -547 -22 -126 -22 -300 0 -359 24
-65 59 -106 113 -132 44 -22 59 -24 181 -22 105 1 132 -1 132 -12 0 -18 -86
-92 -157 -135 -56 -34 -60 -35 -163 -35 -58 0 -193 6 -300 13 -193 13 -313 11
-444 -10 -44 -6 -71 -7 -75 -1 -7 11 -94 17 -471 33 -259 12 -599 7 -864 -12
-150 -10 -160 -10 -173 7 -17 25 -17 70 1 88 10 10 50 17 123 21 135 9 216 22
268 45 33 15 43 26 53 58 31 103 69 394 98 753 20 237 31 1311 16 1556 -15
247 -23 255 -277 262 -88 2 -168 9 -177 14 -25 12 -24 70 2 93 17 15 32 17
117 12 473 -30 735 -31 1081 -5 171 12 202 7 202 -36 0 -13 -8 -34 -18 -46
-15 -19 -35 -24 -138 -36 -115 -13 -160 -20 -196 -30 -20 -6 -33 -48 -47 -159
-47 -361 -88 -1321 -77 -1815 9 -425 26 -589 64 -609 34 -18 179 -42 282 -47
147 -7 168 -11 175 -35 6 -19 8 -19 57 8 109 60 187 183 316 503 148 367 350
1174 457 1829 13 85 26 155 27 157 2 1 78 42 171 91 l167 90 -217 6 c-281 9
-620 35 -685 53 -36 11 -61 111 -38 155 13 23 3 24 135 -6z m-10707 -41 c108
-22 218 -67 304 -123 l73 -47 53 23 c121 53 418 125 630 154 123 16 356 6 484
-21 480 -101 799 -399 899 -840 51 -226 26 -637 -57 -934 -110 -392 -339 -733
-621 -924 -186 -126 -447 -212 -645 -212 -62 0 -69 2 -79 23 -7 16 -7 31 0 50
10 26 13 27 63 21 33 -3 81 0 126 10 317 67 578 475 666 1044 52 333 36 781
-40 1076 -67 260 -208 466 -379 549 -131 65 -320 81 -444 38 -215 -75 -361
-259 -406 -517 -20 -111 -34 -635 -35 -1254 0 -463 10 -688 36 -802 19 -81 55
-119 138 -143 30 -9 60 -23 67 -31 17 -21 -4 -62 -37 -70 -15 -4 -128 -1 -253
5 -168 9 -273 10 -411 2 -238 -14 -227 -15 -241 10 -18 34 2 62 60 82 28 10
57 28 65 40 57 88 101 878 93 1642 -5 494 -9 536 -62 696 -82 245 -277 381
-501 349 -373 -51 -676 -453 -748 -993 -41 -304 -22 -645 51 -897 102 -355
280 -602 517 -719 109 -54 192 -75 303 -75 90 -1 93 -2 93 -24 0 -33 -38 -66
-106 -92 -46 -18 -86 -24 -182 -28 -143 -5 -237 7 -357 48 -425 144 -746 533
-841 1020 -25 129 -25 466 -1 624 111 710 552 1144 1258 1240 147 20 371 20
467 0z m-4833 -39 c302 -25 631 -37 730 -26 50 6 96 11 103 11 7 0 12 -15 12
-40 0 -33 -5 -42 -27 -54 -43 -22 -145 -134 -198 -215 -108 -167 -212 -435
-255 -657 -66 -346 -40 -770 67 -1077 146 -420 415 -641 778 -640 139 1 234
22 350 78 301 146 386 318 437 885 9 101 13 333 13 760 0 740 -6 796 -82 814
-15 4 -111 10 -213 13 -119 4 -188 10 -192 17 -14 21 -8 84 11 107 l18 23 289
-15 c168 -8 404 -12 564 -10 151 2 318 5 370 5 l94 1 10 -28 c8 -21 7 -35 -5
-55 -14 -27 -17 -27 -139 -32 -69 -3 -133 -9 -142 -14 -19 -9 -30 -43 -47
-141 -82 -478 -106 -2077 -36 -2416 19 -95 47 -145 95 -169 54 -28 145 -50
203 -50 l48 0 -3 -32 c-2 -23 -11 -36 -28 -45 -38 -19 -149 -16 -223 7 -63 19
-179 88 -194 114 -7 11 -33 11 -143 0 -74 -7 -170 -13 -212 -13 -72 -1 -79 1
-94 24 -15 22 -32 158 -33 269 l-1 29 -32 -27 c-130 -105 -304 -203 -448 -253
-154 -55 -245 -68 -450 -68 -164 1 -198 4 -297 27 -244 58 -423 152 -585 307
-334 318 -438 875 -260 1391 113 329 333 720 516 917 l54 58 -164 -7 c-282
-12 -427 -47 -499 -123 -22 -23 -46 -40 -52 -38 -17 6 -17 94 1 213 22 145 45
190 96 190 14 0 102 -7 195 -15z m13991 -5000 c44 -29 41 -43 -24 -103 -33
-32 -78 -84 -99 -118 -69 -108 -156 -356 -194 -554 -32 -168 -33 -172 -50
-183 -33 -21 -68 1 -93 56 -94 211 -340 367 -626 398 -116 13 -227 1 -316 -32
-130 -49 -294 -191 -389 -337 -114 -177 -196 -423 -220 -663 l-7 -67 43 -5
c24 -3 177 -11 339 -18 576 -25 992 29 1133 147 32 27 55 30 81 11 17 -12 16
-21 -28 -155 -48 -150 -71 -257 -82 -385 -4 -54 -11 -80 -21 -84 -23 -9 -62
14 -75 44 -35 82 -89 118 -218 147 -119 27 -400 38 -807 30 l-373 -6 0 -27 c0
-14 5 -78 11 -141 42 -454 229 -815 505 -978 301 -178 770 -151 1068 62 74 53
165 148 198 208 27 49 45 56 78 30 l22 -18 -17 -75 c-31 -130 -30 -492 1 -606
5 -18 1 -25 -22 -33 -47 -18 -72 -5 -84 43 -44 168 -50 173 -230 163 -69 -4
-213 -13 -320 -21 -245 -19 -524 -19 -660 -1 -470 63 -835 299 -1022 662 -120
232 -167 489 -147 807 19 308 93 550 237 772 238 370 629 589 1153 646 190 21
698 -2 886 -40 31 -6 46 -5 53 4 5 7 28 67 50 135 49 152 101 262 138 290 31
25 86 23 128 -5z m-14275 -55 c10 -6 19 -19 19 -28 0 -25 -37 -62 -61 -62 -33
0 -75 -27 -114 -72 -47 -55 -117 -201 -144 -298 -27 -100 -69 -351 -77 -464
-7 -97 -20 -126 -59 -126 -36 0 -54 22 -70 85 -43 164 -166 322 -310 397 -234
121 -556 126 -754 11 -224 -129 -372 -358 -445 -683 -68 -307 -58 -716 25
-1039 114 -443 347 -727 668 -813 107 -29 285 -28 396 1 237 63 474 242 586
442 44 81 74 111 102 107 19 -3 22 -8 19 -43 -6 -74 -121 -335 -220 -497 -75
-123 -115 -259 -132 -446 -4 -51 -14 -99 -20 -107 -17 -21 -96 -20 -104 1 -12
31 -5 101 24 247 16 81 26 155 23 163 -4 12 -17 13 -65 8 -33 -4 -207 -7 -387
-8 -301 -1 -335 1 -437 21 -590 120 -970 506 -1074 1091 -32 184 -30 470 6
647 69 338 291 662 588 857 185 122 413 214 631 254 198 37 649 20 919 -35
l85 -17 6 26 c4 14 29 71 56 127 94 192 231 300 320 253z m2557 -112 c7 -7 12
-22 12 -33 0 -56 -134 -198 -234 -249 -55 -28 -57 -28 -242 -27 -103 1 -190 4
-194 6 -4 3 -169 5 -366 6 -373 0 -464 -7 -560 -42 -64 -24 -88 -50 -108 -119
-22 -72 -38 -316 -34 -512 l3 -156 85 70 c244 201 595 387 812 432 97 20 265
21 358 1 177 -37 325 -118 456 -249 165 -165 234 -328 234 -552 0 -243 -106
-545 -302 -864 -267 -434 -306 -503 -356 -630 -71 -182 -66 -336 12 -398 61
-47 186 -50 252 -6 42 29 54 24 54 -20 0 -91 -175 -224 -355 -271 -70 -18
-198 -20 -246 -4 -96 33 -180 136 -181 224 -1 65 16 96 134 244 189 237 266
370 337 587 72 220 101 421 101 704 0 198 -8 279 -40 403 -86 333 -339 548
-650 551 -274 2 -623 -245 -703 -499 -22 -69 -22 -79 -22 -650 0 -718 11 -849
76 -897 18 -14 57 -22 140 -31 l114 -12 3 -33 c7 -66 9 -66 -303 -59 -154 3
-428 1 -610 -3 -352 -9 -351 -9 -340 40 9 41 41 60 100 60 59 0 146 15 187 31
65 27 110 281 150 854 16 228 15 1326 -2 1505 -13 145 -34 231 -62 257 -18 16
-38 18 -160 16 l-139 -2 3 57 3 57 540 1 c667 1 974 19 1375 80 195 30 453 84
565 118 96 30 88 29 103 14z m8725 -25 c3 -5 -39 -138 -92 -298 -53 -159 -105
-325 -115 -368 l-19 -78 -36 3 -36 3 -3 60 c-1 33 -4 70 -7 82 -12 54 -184 80
-617 94 -427 13 -490 4 -656 -92 -83 -50 -237 -208 -295 -305 -93 -157 -158
-335 -194 -534 -25 -138 -25 -486 0 -634 102 -603 450 -942 909 -886 169 20
289 76 411 190 168 156 251 358 249 605 -2 370 -201 591 -492 546 -136 -21
-207 -84 -226 -198 -14 -91 51 -194 131 -208 61 -10 65 -13 65 -39 0 -33 -48
-61 -150 -87 -113 -29 -291 -24 -364 9 -145 66 -219 203 -172 316 45 108 236
227 449 280 199 50 510 71 689 47 304 -41 518 -164 607 -351 23 -49 26 -67 25
-160 0 -87 -5 -118 -28 -185 -146 -423 -586 -780 -1107 -897 -91 -20 -130 -23
-319 -23 -168 0 -237 4 -315 19 -507 95 -851 417 -960 903 -9 37 -18 142 -22
233 -6 183 7 291 53 429 37 114 145 324 221 430 139 193 404 441 585 545 l83
48 -175 -6 c-296 -11 -589 -45 -691 -81 -69 -25 -104 -58 -145 -142 -22 -43
-40 -80 -41 -81 -1 -2 -16 -1 -33 3 -52 12 -59 44 -22 113 37 70 122 286 193
492 44 127 55 151 75 156 37 9 47 -4 40 -52 -7 -58 11 -77 90 -92 128 -25 266
-33 699 -39 818 -10 1339 23 1542 99 64 23 97 49 129 99 19 31 30 39 54 39 16
0 31 -3 33 -7z m-3898 -24 c300 -37 549 -158 682 -334 109 -143 149 -289 140
-510 -12 -267 -87 -478 -247 -694 -223 -301 -588 -509 -987 -562 -101 -13
-410 -7 -462 10 l-34 10 6 -387 c8 -498 22 -635 72 -668 21 -13 49 -16 167
-13 l143 4 0 -45 0 -45 -80 -8 c-183 -18 -483 -104 -725 -208 -76 -33 -237
-121 -410 -224 -361 -214 -517 -295 -568 -295 -62 0 -141 81 -102 105 5 3 43
14 84 25 138 35 378 157 601 305 204 136 209 141 228 250 47 265 88 794 102
1330 8 263 -9 1136 -25 1330 -14 174 -34 288 -57 328 l-19 32 -130 5 -129 5
-3 32 c-2 18 2 41 8 53 11 20 15 20 398 14 l387 -6 122 46 c145 55 268 91 378
110 98 17 338 20 460 5z m8745 -34 c186 -28 364 -95 481 -181 119 -87 220
-231 254 -364 22 -83 22 -252 0 -335 -39 -151 -152 -324 -305 -468 -111 -105
-204 -169 -361 -251 l-122 -64 79 -7 c271 -24 488 -110 630 -250 118 -116 161
-239 114 -323 l-23 -40 127 -218 c70 -119 161 -267 204 -328 88 -127 257 -302
350 -363 123 -81 252 -112 398 -94 102 12 164 40 200 87 28 36 67 46 78 18 13
-35 5 -66 -31 -105 -77 -85 -178 -119 -356 -119 -311 0 -601 146 -930 469
-134 132 -179 182 -443 501 -246 296 -471 508 -617 580 -89 43 -187 60 -391
67 l-179 6 6 -409 c6 -386 12 -484 38 -596 10 -45 13 -48 66 -68 33 -12 102
-25 167 -31 246 -21 296 -35 296 -79 0 -9 -9 -25 -20 -35 -19 -17 -39 -17
-347 -9 -391 11 -811 8 -943 -6 -217 -24 -269 -24 -290 -5 -11 10 -20 28 -20
41 0 22 23 54 39 54 50 0 331 47 381 63 64 22 64 22 77 72 24 93 52 319 63
499 13 232 13 1297 -1 1519 -15 249 -34 389 -56 405 -32 23 -115 41 -269 56
-164 16 -201 27 -210 63 -16 63 22 77 180 63 216 -19 379 -29 483 -30 95 0
107 2 185 36 183 79 406 148 573 178 105 19 326 19 445 1z m-12885 -40 c224
-50 561 -90 890 -105 319 -15 928 15 1125 55 57 11 67 11 83 -3 25 -22 21 -64
-8 -92 -38 -36 -113 -50 -330 -61 -162 -9 -202 -14 -213 -27 -14 -18 -11 -63
19 -302 85 -667 409 -2229 489 -2350 7 -12 33 -15 124 -15 64 0 119 -4 124
-10 15 -15 23 -68 14 -83 -7 -10 -64 -11 -293 -2 -209 8 -340 7 -498 -1 -204
-11 -215 -11 -228 6 -16 23 -17 46 0 68 8 12 33 19 82 24 39 3 75 10 81 15 8
5 10 25 7 51 -6 45 -138 795 -174 989 l-22 117 -76 8 c-42 4 -200 8 -351 8
-230 0 -288 -3 -352 -18 -42 -10 -81 -23 -86 -30 -11 -14 -104 -414 -128 -547
-22 -126 -22 -300 0 -359 24 -65 59 -106 113 -132 44 -22 59 -24 181 -22 105
1 132 -1 132 -12 0 -18 -86 -92 -157 -135 -56 -34 -60 -35 -163 -35 -58 0
-193 6 -300 13 -193 13 -313 11 -444 -10 -74 -11 -86 -6 -86 39 0 17 17 31 80
64 142 74 208 172 348 519 148 367 350 1174 457 1829 13 85 26 155 27 157 2 1
78 42 171 91 l167 90 -217 6 c-281 9 -620 35 -685 53 -36 11 -61 111 -38 155
13 23 3 24 135 -6z"/>
<path d="M13565 24558 c-66 -12 -180 -68 -244 -118 -102 -81 -205 -228 -265
-380 -76 -194 -106 -365 -106 -610 0 -195 12 -289 57 -440 89 -297 313 -568
558 -675 33 -15 69 -30 80 -35 133 -58 391 -73 520 -30 116 38 166 69 245 149
57 57 87 99 123 169 26 51 47 101 47 111 0 9 4 21 9 27 5 5 21 68 36 139 32
155 44 452 27 625 -51 489 -334 905 -707 1037 -112 40 -268 53 -380 31z"/>
<path d="M9951 16519 c-68 -12 -203 -78 -266 -132 -113 -97 -228 -283 -284
-460 -51 -160 -64 -252 -68 -485 -4 -199 -3 -233 17 -330 79 -398 306 -696
640 -840 115 -50 199 -66 350 -65 125 0 154 3 210 23 114 40 163 70 240 149
114 116 173 244 221 481 21 102 24 142 24 365 -1 226 -3 260 -24 355 -66 295
-172 506 -340 677 -206 210 -465 304 -720 262z"/>
<path d="M19494 16521 c-93 -23 -203 -107 -269 -207 -39 -59 -95 -163 -95
-177 0 -5 -6 -23 -14 -40 -26 -57 -55 -164 -71 -254 -17 -94 -41 -380 -33
-388 7 -8 270 93 398 152 46 21 215 105 325 161 33 17 119 76 149 101 63 54
94 176 76 302 -33 232 -256 400 -466 350z"/>
<path d="M14094 10150 c-129 -19 -248 -82 -299 -158 -37 -56 -54 -212 -76
-711 -9 -216 -9 -265 2 -271 21 -13 171 -24 339 -24 193 0 265 18 362 93 117
90 179 214 198 398 36 349 -125 631 -385 673 -66 11 -67 11 -141 0z"/>
<path d="M13811 8833 l-103 -4 5 -472 c3 -262 10 -508 16 -552 16 -111 55
-188 134 -262 119 -111 259 -165 432 -166 117 -1 183 13 281 59 223 105 349
395 331 759 -7 133 -25 211 -67 294 -90 178 -251 282 -503 326 -94 16 -353 25
-526 18z"/>
<path d="M17162 10165 c-132 -29 -307 -138 -347 -215 -49 -95 -94 -632 -95
-1127 l0 -151 33 -12 c46 -18 403 -25 497 -11 180 28 296 132 406 365 23 50
52 127 63 172 84 331 -26 754 -237 909 -95 70 -209 95 -320 70z"/>
<path d="M21663 9999 c-74 -28 -197 -302 -331 -739 -60 -193 -152 -546 -152
-579 0 -16 8 -15 113 6 61 12 236 43 387 69 151 25 275 47 276 48 1 2 -144
795 -170 926 -50 248 -68 290 -123 269z"/>
<path d="M11823 4830 c-79 -12 -192 -48 -255 -82 -84 -45 -124 -87 -132 -140
-17 -119 -46 -943 -46 -1309 0 -158 2 -179 19 -201 28 -35 108 -75 198 -99
111 -30 326 -30 436 -1 296 80 487 319 563 707 13 66 18 140 18 275 1 160 -2
197 -22 274 -87 342 -330 559 -652 580 -41 2 -98 1 -127 -4z"/>
<path d="M20642 4795 c-132 -29 -307 -138 -347 -215 -49 -95 -94 -632 -95
-1127 l0 -151 33 -12 c46 -18 403 -25 497 -11 180 28 296 132 406 365 23 50
52 127 63 172 84 331 -26 754 -237 909 -95 70 -209 95 -320 70z"/>
<path d="M9083 4629 c-74 -28 -197 -302 -331 -739 -60 -193 -152 -546 -152
-579 0 -16 8 -15 113 6 61 12 236 43 387 69 151 25 275 47 276 48 1 2 -144
795 -170 926 -50 248 -68 290 -123 269z"/>
</g>
</svg>
